<svg width="32" height="32" viewBox="0 0 32 32" fill="none" xmlns="http://www.w3.org/2000/svg">
<path d="M16 29.3334C17.4667 29.3334 18.6667 28.1334 18.6667 26.6667H13.3333C13.3333 28.1334 14.5333 29.3334 16 29.3334ZM24 21.3334V14.6667C24 10.5734 21.8267 7.14671 18 6.24004V5.33337C18 4.22671 17.1067 3.33337 16 3.33337C14.8933 3.33337 14 4.22671 14 5.33337V6.24004C10.1867 7.14671 7.99999 10.56 7.99999 14.6667V21.3334L5.33333 24V25.3334H26.6667V24L24 21.3334ZM21.3333 22.6667H10.6667V14.6667C10.6667 11.36 12.68 8.66671 16 8.66671C19.32 8.66671 21.3333 11.36 21.3333 14.6667V22.6667Z" fill="white"/>
</svg>
